# AST/ASF file generated using VICON BodyLanguage
# -----------------------------------------------
:version 1.10
:name VICON
:units
  mass 1.0
  length 0.45
  angle deg
:documentation
   .ast/.asf automatically generated from VICON data using
   VICON BodyBuilder and BodyLanguage model FoxedUp or BRILLIANT.MOD
:root
   order TX TY TZ RX RY RZ
   axis XYZ
   position 0 0 0  
   orientation 0 0 0 
:bonedata
  begin
     id 1 
     name lhipjoint
     direction 0.643824 -0.71708 0.266994 
     length 2.52133 
     axis 0 0 0  XYZ
  end
  begin
     id 2 
     name lfemur
     direction 0.34202 -0.939693 0  
     length 7.51824  
     axis 0 0 20  XYZ
    dof rx ry rz
    limits (-160.0 20.0)
           (-70.0 70.0)
           (-60.0 70.0)
  end
  begin
     id 3 
     name ltibia
     direction 0.34202 -0.939693 0   
     length 7.3685   
     axis 0 0 20   XYZ
    dof rx
    limits (-10.0 170.0)
  end
  begin
     id 4 
     name lfoot
     direction 0.105419 -0.289636 0.951314   
     length 2.20972   
     axis -90 7.62852e-016 20   XYZ
    dof rx rz
    limits (-45.0 90.0)
           (-70.0 20.0)
  end
  begin
     id 5 
     name ltoes
     direction 1.53549e-011 -4.21833e-011 1   
     length 1.10139   
     axis -90 7.62852e-016 20   XYZ
    dof rx
    limits (-90.0 20.0)
  end
  begin
     id 6 
     name rhipjoint
     direction -0.608823 -0.743445 0.276811   
     length 2.43192  
     axis 0 0 0  XYZ 
  end
  begin
     id 7 
     name rfemur
     direction -0.34202 -0.939693 0   
     length 7.69715   
     axis 0 0 -20   XYZ
    dof rx ry rz
    limits (-160.0 20.0)
           (-70.0 70.0)
           (-70.0 60.0)
  end
  begin
     id 8 
     name rtibia
     direction -0.34202 -0.939693 0   
     length 7.44924   
     axis 0 0 -20   XYZ
    dof rx
    limits (-10.0 170.0)
 end
 begin
     id 9 
     name rfoot
     direction -0.103614 -0.284677 0.953007   
     length 2.22623  
     axis -90 -7.62852e-016 -20   XYZ
    dof rx rz
    limits (-45.0 90.0)
           (-20.0 70.0)
  end
  begin
     id 10 
     name rtoes
     direction -1.53537e-011 -4.22026e-011 1   
     length 1.11   
     axis -90 -7.62852e-016 -20   XYZ
    dof rx
    limits (-90.0 20.0)
  end
  begin
     id 11 
     name lowerback
     direction -0.0101212 0.99662 -0.0815298   
     length 2.08277   
     axis 0 0 0   XYZ
    dof rx ry rz
    limits (-20.0 45.0)
           (-30.0 30.0)
           (-30.0 30.0)
  end
  begin
     id 12 
     name upperback
     direction 0.024314 0.999591 -0.0150645   
     length 2.08524   
     axis 0 0 0   XYZ
    dof rx ry rz
    limits (-20.0 45.0)
           (-30.0 30.0)
           (-30.0 30.0)
  end
  begin
     id 13 
     name thorax
     direction 0.0285959 0.999323 0.0231357   
     length 2.09645   
     axis 0 0 0   XYZ
    dof rx ry rz
    limits (-20.0 45.0)
           (-30.0 30.0)
           (-30.0 30.0)
  end
  begin
     id 14 
     name lowerneck
     direction -0.065512 0.979301 0.191515   
     length 1.63798   
     axis 0 0 0   XYZ
    dof rx ry rz
    limits (-20.0 45.0)
           (-30.0 30.0)
           (-30.0 30.0)
  end
  begin
     id 15 
     name upperneck
     direction 0.0498479 0.98191 -0.182667   
     length 1.68731   
     axis 0 0 0   XYZ
    dof rx ry rz
    limits (-20.0 45.0)
           (-30.0 30.0)
           (-30.0 30.0)
  end
  begin
     id 16
     name head
     direction 0.0230358 0.996257 -0.0833175  
     length 1.69785  
     axis 0 0 0   XYZ
    dof rx ry rz
    limits (-20.0 45.0)
           (-30.0 30.0)
           (-30.0 30.0)
  end
  begin
     id 17 
     name lclavicle
     direction 0.967963 0.201165 -0.150269  
     length 3.63976  
     axis 0 0 0   XYZ
    dof ry rz
    limits (-20.0 10.0)
           (0.0 20.0)
  end
  begin
     id 18 
     name lhumerus
     direction 1 -4.48954e-011 -2.92837e-028   
     length 5.32462   
     axis 180 -30 -90   XYZ
    dof rx ry rz
    limits (-60.0 90.0)
           (-90.0 90.0)
           (-90.0 90.0)
  end
  begin
     id 19
     name lradius
     direction 1 -4.48958e-011 -6.39511e-027   
     length 3.48402   
     axis 180 -30 -90   XYZ
    dof rx
    limits (-10.0 170.0)
  end
  begin
     id 20
     name lwrist
     direction 1 -4.48975e-011 -1.1413e-026   
     length 1.74201   
     axis 6.88575e-015 90 90   XYZ
    dof ry
    limits (-180.0 0.0)
 end
  begin
     id 21 
     name lhand
     direction 1 -4.48899e-011 -2.28192e-026   
     length 0.572476   
     axis 1.45643e-014 90 90   XYZ
    dof rx rz
    limits (-90.0 90.0)
           (-45.0 45.0)
  end
  begin
     id 22 
     name lfingers
     direction 1 -4.49155e-011 -4.5684e-026   
     length 0.461545   
     axis 2.91283e-014 90 90   XYZ
    dof rx
    limits (0.0 90.0)
  end
  begin
     id 23
     name lthumb
     direction 0.707107 -6.34943e-011 0.707107   
     length 0.662688   
     axis -90 45 -2.25915e-014   XYZ
    dof rx rz
    limits (-45.0 45.0)
           (-45.0 45.0)
  end
  begin
     id 24 
     name rclavicle
     direction -0.964103 0.264019 -0.0282629   
     length 3.54491  
     axis 0 0 0   XYZ 
    dof ry rz
    limits (-10.0 20.0)
           (-20.0 0.0)
  end
  begin
     id 25 
     name rhumerus
     direction -1 -4.48964e-011 -2.45032e-027  
     length 5.33589   
     axis 180 30 90   XYZ
    dof rx ry rz
    limits (-90.0 60.0)
           (-90.0 90.0)
           (-90.0 90.0)
  end
  begin
     id 26 
     name rradius
     direction -1 -4.48987e-011 -1.55093e-027   
     length 3.64134   
     axis 180 30 90   XYZ
    dof rx
    limits (-10.0 170.0)
  end
  begin
     id 27 
     name rwrist
     direction -1 -4.4897e-011 -1.14128e-026   
     length 1.82067   
     axis 6.88575e-015 -90 -90   XYZ
    dof ry
    limits (-180.0 0.0)
  end
  begin
     id 28
     name rhand
     direction -1 -4.49021e-011 -2.28301e-026   
     length 0.734811   
     axis 1.45643e-014 -90 -90   XYZ
    dof rx rz
    limits (-90.0 90.0)
           (-45.0 45.0)
  end
  begin
     id 29
     name rfingers
     direction -1 -4.48862e-011 -4.56319e-026   
     length 0.592424   
     axis 2.91283e-014 -90 -90   XYZ
    dof rx
    limits (0.0 90.0)
  end
  begin
     id 30
     name rthumb
     direction -0.707107 -6.34978e-011 0.707107   
     length 0.850605   
     axis -90 -45 2.25915e-014   XYZ
    dof rx rz
    limits (-45.0 45.0)
           (-45.0 45.0)
  end
:hierarchy
  begin
    root lhipjoint rhipjoint lowerback
    lhipjoint lfemur
    lfemur ltibia
    ltibia lfoot
    lfoot ltoes
    rhipjoint rfemur
    rfemur rtibia
    rtibia rfoot
    rfoot rtoes
    lowerback upperback
    upperback thorax
    thorax lowerneck lclavicle rclavicle
    lowerneck upperneck
    upperneck head
    lclavicle lhumerus
    lhumerus lradius
    lradius lwrist
    lwrist lhand lthumb
    lhand lfingers
    rclavicle rhumerus
    rhumerus rradius
    rradius rwrist
    rwrist rhand rthumb
    rhand rfingers
  end

#!OML:ASF F:\VICON\USERDATA\INSTALL\rory3\rory3.ASF
:FULLY-SPECIFIED
:DEGREES
1
root -1.0388 17.5044 -2.91597 5.77999 -22.4692 -0.0628854
lowerback 2.79847 -1.02248 -5.17558
upperback 0.602703 -1.50222 1.17272
thorax -0.784042 -0.743253 4.16414
lowerneck -18.4256 -5.26784 -12.6773
upperneck 23.0229 -4.74391 4.28007
head 10.9304 -2.78552 2.93735
rclavicle -2.04003e-014 -7.40473e-015
rhumerus -26.8414 14.8201 -87.5192
rradius 123.606
rwrist -0.940721
rhand -17.5565 20.5734
rfingers 7.12502
rthumb 8.6983 -9.22736
lclavicle -2.04003e-014 -7.40473e-015
lhumerus -28.4762 -14.2599 88.0711
lradius 110.274
lwrist -10.1631
lhand -17.2235 12.7917
lfingers 7.12502
lthumb 9.01968 42.5789
rfemur -22.6075 5.41306 12.3617
rtibia 38.7582
rfoot -18.5467 -0.162077
rtoes -1.76099
lfemur -13.9459 3.18929 -20.7149
ltibia 34.0793
lfoot -20.864 8.47646
ltoes -11.5414
2
root -1.06158 17.5074 -2.90432 5.65176 -22.4281 -0.0250846
lowerback 2.81124 -0.931792 -5.18231
upperback 0.530451 -1.38373 1.15348
thorax -0.879087 -0.679584 4.14586
lowerneck -18.3227 -5.25284 -12.753
upperneck 23.0387 -4.73547 4.35524
head 10.92 -2.7811 2.98033
rclavicle 1.33931e-014 1.01877e-014
rhumerus -26.5766 14.9175 -87.3478
rradius 123.397
rwrist -1.06741
rhand -17.5849 20.5078
rfingers 7.12502
rthumb 8.67097 -9.29417
lclavicle 1.33931e-014 1.01877e-014
lhumerus -28.0257 -14.5331 87.9555
lradius 110.277
lwrist -9.51618
lhand -16.9557 12.913
lfingers 7.12502
lthumb 9.27809 42.6889
rfemur -22.2381 5.44924 12.4734
rtibia 38.6177
rfoot -18.4077 0.440627
rtoes 0.713466
lfemur -13.6953 3.05002 -20.6728
ltibia 33.9068
lfoot -20.676 8.53034
ltoes -11.9899
3
root -1.08184 17.5126 -2.89291 5.51444 -22.3141 0.0512837
lowerback 2.80538 -0.918662 -5.1396
upperback 0.489834 -1.36604 1.09225
thorax -0.922167 -0.668682 4.05814
lowerneck -18.48 -5.19752 -12.7006
upperneck 23.2774 -4.66132 4.37691
head 11.0303 -2.7449 2.99208
rclavicle -4.00862e-014 7.45443e-015
rhumerus -26.3601 15.0984 -87.2494
rradius 123.13
rwrist -1.14201
rhand -17.6526 20.6671
rfingers 7.12502
rthumb 8.6056 -9.13752
lclavicle -4.00862e-014 7.45443e-015
lhumerus -27.5425 -14.6536 87.72
lradius 110.342
lwrist -8.79773
lhand -16.6586 13.0996
lfingers 7.12502
lthumb 9.56475 42.8625
rfemur -21.9003 5.60795 12.4977
rtibia 38.4916
rfoot -18.625 0.152775
rtoes 1.29641
lfemur -13.484 2.89599 -20.6719
ltibia 33.7773
lfoot -20.5643 8.46912
ltoes -11.5495
4
root -1.10335 17.516 -2.88716 5.41312 -22.2286 0.0632199
lowerback 2.80521 -0.882922 -5.03237
upperback 0.453766 -1.3165 1.03332
thorax -0.968471 -0.642123 3.93551
lowerneck -18.5593 -5.14751 -12.6813
upperneck 23.4716 -4.60657 4.44029
head 11.1132 -2.71511 3.02244
rclavicle 6.40087e-014 2.43511e-015
rhumerus -26.1837 15.2043 -87.2174
rradius 122.809
rwrist -1.02782
rhand -17.7109 20.8025
rfingers 7.12502
rthumb 8.54932 -9.00445
lclavicle 6.40087e-014 2.43511e-015
lhumerus -27.0178 -14.8351 87.4467
lradius 110.39
lwrist -8.17396
lhand -16.3662 13.2306
lfingers 7.12502
lthumb 9.84688 42.9804
rfemur -21.6775 5.88872 12.5774
rtibia 38.3824
rfoot -19.0152 -0.679522
rtoes 0.264676
lfemur -13.2986 2.76639 -20.603
ltibia 33.6847
lfoot -20.5291 8.45737
ltoes -11.1822
5
root -1.12583 17.5157 -2.88459 5.29782 -22.2157 0.0792479
lowerback 2.82862 -0.807864 -4.96354
upperback 0.410423 -1.21686 0.993652
thorax -1.03907 -0.589669 3.85347
lowerneck -18.462 -5.10111 -12.7045
upperneck 23.5545 -4.55029 4.44011
head 11.1208 -2.69544 3.03732
rclavicle 3.82785e-014 1.36167e-014
rhumerus -26.0689 15.2909 -87.1326
rradius 122.516
rwrist -0.97793
rhand -17.7332 20.863
rfingers 7.12502
rthumb 8.52778 -8.94479
lclavicle 3.82785e-014 1.36167e-014
lhumerus -26.5182 -15.0212 87.2655
lradius 110.39
lwrist -7.79072
lhand -16.0841 13.1372
lfingers 7.12502
lthumb 10.119 42.8739
rfemur -21.5288 6.14498 12.6539
rtibia 38.3067
rfoot -19.1072 -1.11424
rtoes -0.818694
lfemur -13.1178 2.50722 -20.544
ltibia 33.6544
lfoot -20.5428 8.65225
ltoes -11.2106
6
root -1.14699 17.5144 -2.88159 5.2073 -22.1405 0.025651
lowerback 3.00625 -0.749081 -4.85342
upperback 0.277403 -1.14636 1.01251
thorax -1.28485 -0.54541 3.81349
lowerneck -18.1117 -5.03902 -12.992
upperneck 23.4474 -4.5068 4.74062
head 11.0241 -2.66693 3.20582
rclavicle 2.85753e-016 5.26779e-015
rhumerus -26.0949 15.4183 -86.9937
rradius 122.279
rwrist -1.13606
rhand -17.6491 20.8431
rfingers 7.12502
rthumb 8.60901 -8.96141
lclavicle 2.85753e-016 5.26779e-015
lhumerus -26.1733 -15.1274 87.1594
lradius 110.394
lwrist -7.395
lhand -15.9291 12.9682
lfingers 7.12502
lthumb 10.2686 42.6976
rfemur -21.375 6.32488 12.784
rtibia 38.2783
rfoot -18.9068 -0.929635
rtoes 0.0924294
lfemur -12.9282 2.18891 -20.4351
ltibia 33.686
lfoot -20.6048 8.91322
ltoes -11.2288
7
root -1.16794 17.5137 -2.87572 5.14975 -22.0509 -0.107183
lowerback 3.11155 -0.677247 -4.64201
upperback 0.224979 -1.04921 1.03356
thorax -1.41118 -0.493601 3.71489
lowerneck -17.9807 -5.0149 -13.1514
upperneck 23.3686 -4.49828 4.9487
head 10.9776 -2.65169 3.31105
rclavicle 4.22355e-014 -1.01877e-014
rhumerus -25.7479 15.5328 -86.8311
rradius 121.982
rwrist -1.31248
rhand -17.6359 20.6494
rfingers 7.12502
rthumb 8.62171 -9.1546
lclavicle 4.22355e-014 -1.01877e-014
lhumerus -25.6305 -15.2424 87.0275
lradius 110.379
lwrist -6.93322
lhand -15.9525 12.7456
lfingers 7.12502
lthumb 10.246 42.476
rfemur -21.2066 6.52686 12.9857
rtibia 38.2893
rfoot -18.7915 -0.862881
rtoes 1.02499
lfemur -12.751 1.921 -20.2544
ltibia 33.7446
lfoot -20.72 9.14493
ltoes -11.1332
8
root -1.18943 17.5134 -2.87029 4.99556 -22.0355 -0.0953515
lowerback 2.9173 -0.557774 -4.4072
upperback 0.467198 -0.871099 0.874937
thorax -1.07629 -0.41908 3.40627
lowerneck -18.6525 -5.12347 -12.6995
upperneck 23.6681 -4.58761 4.55758
head 11.2058 -2.69744 3.07354
rclavicle -3.74461e-014 8.84592e-015
rhumerus -24.6678 15.4562 -86.6723
rradius 121.553
rwrist -1.27479
rhand -17.6453 20.4164
rfingers 7.12502
rthumb 8.61269 -9.38796
lclavicle -3.74461e-014 8.84592e-015
lhumerus -24.6187 -15.5724 86.6493
lradius 110.395
lwrist -6.53021
lhand -15.9708 12.9455
lfingers 7.12502
lthumb 10.2283 42.6769
rfemur -21.0073 6.63367 13.0488
rtibia 38.3306
rfoot -18.9744 -1.05184
rtoes 0.635392
lfemur -12.5999 1.96513 -20.2059
ltibia 33.81
lfoot -20.7114 9.14423
ltoes -11.0251
9
root -1.21179 17.5162 -2.86489 4.85173 -21.9886 -0.0288275
lowerback 2.92431 -0.434318 -4.26692
upperback 0.548886 -0.703181 0.706337
thorax -1.0154 -0.33871 3.14666
lowerneck -19.1427 -5.21047 -12.2274
upperneck 23.9148 -4.69791 4.21703
head 11.3814 -2.74595 2.84802
rclavicle 5.79333e-014 9.34288e-015
rhumerus -24.0324 15.3245 -86.6524
rradius 121.309
rwrist -1.00095
rhand -17.7003 20.1921
rfingers 7.12502
rthumb 8.55956 -9.61441
lclavicle 5.79333e-014 9.34288e-015
lhumerus -24.0193 -15.902 86.3872
lradius 110.539
lwrist -6.15382
lhand -16.0868 13.2381
lfingers 7.12502
lthumb 10.1164 42.9749
rfemur -20.8436 6.60641 13.0639
rtibia 38.379
rfoot -19.0891 -1.15197
rtoes 0.21538
lfemur -12.4879 2.09406 -20.2024
ltibia 33.8557
lfoot -20.6348 9.05124
ltoes -11.1445
10
root -1.23636 17.5185 -2.86161 4.79255 -21.8704 -0.0403665
lowerback 2.97545 -0.405356 -4.2166
upperback 0.534447 -0.6655 0.71266
thorax -1.06267 -0.31869 3.1242
lowerneck -19.2372 -5.17955 -12.2135
upperneck 23.8653 -4.65057 4.24451
head 11.3763 -2.71716 2.86209
rclavicle 1.01877e-014 2.38542e-015
rhumerus -23.7372 15.4697 -86.5523
rradius 121.305
rwrist -0.567386
rhand -17.845 20.1176
rfingers 7.12502
rthumb 8.41991 -9.69456
lclavicle 1.01877e-014 2.38542e-015
lhumerus -23.622 -15.9457 86.2858
lradius 110.727
lwrist -5.81262
lhand -16.3583 13.4782
lfingers 7.12502
lthumb 9.85453 43.2276
rfemur -20.7428 6.49666 13.1877
rtibia 38.4298
rfoot -19.0244 -1.10677
rtoes 0.257777
lfemur -12.3989 1.96927 -20.1112
ltibia 33.8702
lfoot -20.6506 9.13428
ltoes -11.3088
11
root -1.26123 17.521 -2.86002 4.73042 -21.6585 -0.0444895
lowerback 2.98053 -0.444332 -4.2752
upperback 0.547138 -0.717879 0.831211
thorax -1.04571 -0.345205 3.28147
lowerneck -19.4755 -5.09952 -12.2781
upperneck 23.9646 -4.46508 4.17931
head 11.4436 -2.64713 2.87655
rclavicle 2.52581e-014 4.57205e-015
rhumerus -23.4067 15.799 -86.2773
rradius 121.392
rwrist -0.18677
rhand -17.8438 20.0698
rfingers 7.12502
rthumb 8.42108 -9.74227
lclavicle 2.52581e-014 4.57205e-015
lhumerus -23.1272 -15.8153 86.2896
lradius 110.845
lwrist -5.60321
lhand -16.7466 13.4953
lfingers 7.12502
lthumb 9.47988 43.2621
rfemur -20.6131 6.35561 13.3225
rtibia 38.4711
rfoot -19.0123 -1.15073
rtoes 0.643842
lfemur -12.3073 1.54645 -20.0246
ltibia 33.8769
lfoot -20.7181 9.37144
ltoes -11.6165
12
root -1.28439 17.5229 -2.86029 4.67453 -21.3855 -0.0700473
lowerback 3.00039 -0.439265 -4.19601
upperback 0.577912 -0.708676 0.860756
thorax -1.0266 -0.341831 3.26705
lowerneck -19.5434 -5.09939 -12.4299
upperneck 23.8804 -4.46307 4.39476
head 11.4335 -2.62964 2.98088
rclavicle 4.98266e-014 -7.15625e-015
rhumerus -23.1448 15.9143 -86.0805
rradius 121.671
rwrist 0.0934158
rhand -17.7419 20.0275
rfingers 7.12502
rthumb 8.51938 -9.78067
lclavicle 4.98266e-014 -7.15625e-015
lhumerus -22.6346 -15.8591 86.2733
lradius 110.987
lwrist -5.31943
lhand -17.192 13.3259
lfingers 7.12502
lthumb 9.05008 43.1117
rfemur -20.4557 6.19068 13.4866
rtibia 38.5007
rfoot -19.1419 -1.3752
rtoes 0.416458
lfemur -12.2571 1.1236 -19.9076
ltibia 33.9012
lfoot -20.7107 9.54233
ltoes -12.0568
13
root -1.30809 17.5238 -2.8609 4.71644 -21.1163 -0.16109
lowerback 3.00035 -0.416957 -3.95946
upperback 0.574049 -0.671914 0.826316
thorax -1.037 -0.323855 3.09696
lowerneck -19.5278 -5.11834 -12.5746
upperneck 23.7451 -4.53338 4.72535
head 11.3968 -2.62944 3.11586
rclavicle 2.42704e-014 -2.50966e-014
rhumerus -22.9056 15.9294 -86.0618
rradius 121.993
rwrist 0.403691
rhand -17.7869 20.1107
rfingers 7.12502
rthumb 8.47604 -9.69917
lclavicle 2.42704e-014 -2.50966e-014
lhumerus -22.174 -16.0389 86.1603
lradius 111.196
lwrist -4.82191
lhand -17.4779 13.3873
lfingers 7.12502
lthumb 8.77418 43.1849
rfemur -20.396 5.97859 13.7102
rtibia 38.5234
rfoot -19.2641 -1.55336
rtoes 0.215479
lfemur -12.2916 1.06092 -19.6986
ltibia 33.9319
lfoot -20.6855 9.34866
ltoes -11.9866
14
root -1.33384 17.5248 -2.85997 4.75408 -20.8639 -0.234326
lowerback 3.02542 -0.41095 -3.83274
upperback 0.553037 -0.660839 0.854148
thorax -1.07471 -0.317515 3.05435
lowerneck -19.8273 -5.04348 -12.2473
upperneck 23.9278 -4.38486 4.33696
head 11.4914 -2.58197 2.93971
rclavicle 7.65942e-015 -2.48481e-016
rhumerus -22.5889 16.043 -86.0062
rradius 122.279
rwrist 0.679101
rhand -17.8283 20.3929
rfingers 7.12502
rthumb 8.43601 -9.41863
lclavicle 7.65942e-015 -2.48481e-016
lhumerus -21.7247 -16.2176 86.1027
lradius 111.39
lwrist -4.34848
lhand -17.9405 13.4961
lfingers 7.12502
lthumb 8.32777 43.312
rfemur -20.3355 5.73761 13.9188
rtibia 38.5274
rfoot -19.3277 -1.64043
rtoes 0.18462
lfemur -12.3207 1.10599 -19.505
ltibia 33.9735
lfoot -20.707 9.09807
ltoes -11.9739
15
root -1.36212 17.5273 -2.85789 4.7957 -20.5329 -0.28605
lowerback 3.12563 -0.428558 -3.83024
upperback 0.433251 -0.68813 0.976936
thorax -1.25033 -0.325238 3.18276
lowerneck -20.0643 -4.94749 -11.9627
upperneck 24.1672 -4.1804 3.86678
head 11.5923 -2.52688 2.74995
rclavicle 5.72779e-014 -9.06955e-015
rhumerus -22.4713 16.2168 -85.8693
rradius 122.704
rwrist 0.669435
rhand -17.8033 20.7222
rfingers 7.12502
rthumb 8.46014 -9.08831
lclavicle 5.72779e-014 -9.06955e-015
lhumerus -21.4405 -16.3106 86.2547
lradius 111.6
lwrist -3.89613
lhand -18.2797 13.589
lfingers 7.12502
lthumb 8.00043 43.4176
rfemur -20.2478 5.43506 14.111
rtibia 38.525
rfoot -19.4034 -1.69438
rtoes 0.256695
lfemur -12.3656 0.972169 -19.3206
ltibia 34.0025
lfoot -20.679 8.93629
ltoes -12.1293
